<mxfile host="app.diagrams.net" modified="2024-05-25T22:21:08.138Z" agent="Mozilla/5.0 (Windows NT 10.0; Win64; x64) AppleWebKit/537.36 (KHTML, like Gecko) Chrome/124.0.0.0 Safari/537.36" etag="LEenj79lV6zXgnqNf_jE" version="24.4.4" type="device">
  <diagram name="Page-1" id="hP2jM-47_2ZpHIXFdIZM">
    <mxGraphModel dx="675" dy="921" grid="1" gridSize="10" guides="1" tooltips="1" connect="1" arrows="1" fold="1" page="1" pageScale="1" pageWidth="850" pageHeight="1100" math="0" shadow="0">
      <root>
        <mxCell id="0" />
        <mxCell id="1" parent="0" />
        <mxCell id="OSaKqUARE-_J9Z4AMlIe-1" value="html.index" style="rounded=0;whiteSpace=wrap;html=1;" vertex="1" parent="1">
          <mxGeometry x="310" y="90" width="180" height="110" as="geometry" />
        </mxCell>
        <mxCell id="OSaKqUARE-_J9Z4AMlIe-20" style="edgeStyle=orthogonalEdgeStyle;rounded=0;orthogonalLoop=1;jettySize=auto;html=1;entryX=0;entryY=0.5;entryDx=0;entryDy=0;" edge="1" parent="1" source="OSaKqUARE-_J9Z4AMlIe-8" target="OSaKqUARE-_J9Z4AMlIe-17">
          <mxGeometry relative="1" as="geometry" />
        </mxCell>
        <mxCell id="OSaKqUARE-_J9Z4AMlIe-8" value="resume&lt;div&gt;landing_page&lt;/div&gt;" style="shape=cube;whiteSpace=wrap;html=1;boundedLbl=1;backgroundOutline=1;darkOpacity=0.05;darkOpacity2=0.1;" vertex="1" parent="1">
          <mxGeometry x="530" y="110" width="120" height="80" as="geometry" />
        </mxCell>
        <mxCell id="OSaKqUARE-_J9Z4AMlIe-13" style="edgeStyle=orthogonalEdgeStyle;rounded=0;orthogonalLoop=1;jettySize=auto;html=1;entryX=0;entryY=0.25;entryDx=0;entryDy=0;" edge="1" parent="1" source="OSaKqUARE-_J9Z4AMlIe-10" target="OSaKqUARE-_J9Z4AMlIe-1">
          <mxGeometry relative="1" as="geometry" />
        </mxCell>
        <mxCell id="OSaKqUARE-_J9Z4AMlIe-10" value="Content 1" style="rounded=0;whiteSpace=wrap;html=1;" vertex="1" parent="1">
          <mxGeometry x="90" y="100" width="180" height="30" as="geometry" />
        </mxCell>
        <mxCell id="OSaKqUARE-_J9Z4AMlIe-14" style="edgeStyle=orthogonalEdgeStyle;rounded=0;orthogonalLoop=1;jettySize=auto;html=1;entryX=0;entryY=0.5;entryDx=0;entryDy=0;" edge="1" parent="1" source="OSaKqUARE-_J9Z4AMlIe-11" target="OSaKqUARE-_J9Z4AMlIe-1">
          <mxGeometry relative="1" as="geometry" />
        </mxCell>
        <mxCell id="OSaKqUARE-_J9Z4AMlIe-11" value="Content 2" style="rounded=0;whiteSpace=wrap;html=1;" vertex="1" parent="1">
          <mxGeometry x="90" y="130" width="180" height="30" as="geometry" />
        </mxCell>
        <mxCell id="OSaKqUARE-_J9Z4AMlIe-15" style="edgeStyle=orthogonalEdgeStyle;rounded=0;orthogonalLoop=1;jettySize=auto;html=1;entryX=0;entryY=0.75;entryDx=0;entryDy=0;" edge="1" parent="1" source="OSaKqUARE-_J9Z4AMlIe-12" target="OSaKqUARE-_J9Z4AMlIe-1">
          <mxGeometry relative="1" as="geometry" />
        </mxCell>
        <mxCell id="OSaKqUARE-_J9Z4AMlIe-12" value="..." style="rounded=0;whiteSpace=wrap;html=1;" vertex="1" parent="1">
          <mxGeometry x="90" y="160" width="180" height="30" as="geometry" />
        </mxCell>
        <mxCell id="OSaKqUARE-_J9Z4AMlIe-26" style="edgeStyle=orthogonalEdgeStyle;rounded=0;orthogonalLoop=1;jettySize=auto;html=1;" edge="1" parent="1" source="OSaKqUARE-_J9Z4AMlIe-17" target="OSaKqUARE-_J9Z4AMlIe-25">
          <mxGeometry relative="1" as="geometry" />
        </mxCell>
        <mxCell id="OSaKqUARE-_J9Z4AMlIe-17" value="export as PDF" style="shape=process;whiteSpace=wrap;html=1;backgroundOutline=1;" vertex="1" parent="1">
          <mxGeometry x="700" y="120" width="100" height="60" as="geometry" />
        </mxCell>
        <mxCell id="OSaKqUARE-_J9Z4AMlIe-19" style="edgeStyle=orthogonalEdgeStyle;rounded=0;orthogonalLoop=1;jettySize=auto;html=1;entryX=0;entryY=0;entryDx=0;entryDy=30;entryPerimeter=0;" edge="1" parent="1" source="OSaKqUARE-_J9Z4AMlIe-1" target="OSaKqUARE-_J9Z4AMlIe-8">
          <mxGeometry relative="1" as="geometry" />
        </mxCell>
        <mxCell id="OSaKqUARE-_J9Z4AMlIe-24" style="edgeStyle=orthogonalEdgeStyle;rounded=0;orthogonalLoop=1;jettySize=auto;html=1;entryX=0.25;entryY=1;entryDx=0;entryDy=0;" edge="1" parent="1" source="OSaKqUARE-_J9Z4AMlIe-22" target="OSaKqUARE-_J9Z4AMlIe-17">
          <mxGeometry relative="1" as="geometry" />
        </mxCell>
        <mxCell id="OSaKqUARE-_J9Z4AMlIe-22" value="resume.pdf" style="rounded=0;whiteSpace=wrap;html=1;" vertex="1" parent="1">
          <mxGeometry x="500" y="260" width="180" height="50" as="geometry" />
        </mxCell>
        <mxCell id="OSaKqUARE-_J9Z4AMlIe-25" value="resume.pdf" style="shape=document;whiteSpace=wrap;html=1;boundedLbl=1;" vertex="1" parent="1">
          <mxGeometry x="860" y="110" width="120" height="80" as="geometry" />
        </mxCell>
        <mxCell id="OSaKqUARE-_J9Z4AMlIe-28" style="edgeStyle=orthogonalEdgeStyle;rounded=0;orthogonalLoop=1;jettySize=auto;html=1;entryX=0;entryY=0.5;entryDx=0;entryDy=0;" edge="1" parent="1" source="OSaKqUARE-_J9Z4AMlIe-27" target="OSaKqUARE-_J9Z4AMlIe-22">
          <mxGeometry relative="1" as="geometry" />
        </mxCell>
        <mxCell id="OSaKqUARE-_J9Z4AMlIe-27" value="overleaf" style="ellipse;shape=cloud;whiteSpace=wrap;html=1;" vertex="1" parent="1">
          <mxGeometry x="320" y="245" width="120" height="80" as="geometry" />
        </mxCell>
      </root>
    </mxGraphModel>
  </diagram>
</mxfile>
